# xmcd
#
# Track frame offsets: 
#        150
#        21562
#        38092
#        50960
#        67502
#        85845
#        100210
#        115820
#        129185
#        164485
#        179662
#        196032
#        215060
#        236592
#        256440
#
# Disc length: 3474 seconds
#
# Revision: 2
# Processed by: cddbd v1.5.2PL0 Copyright (c) Steve Scherf et al.
# Submitted via: ExactAudioCopy v0.95a4
#
DISCID=d20d900f
DTITLE=Sky - The Very Best of Sky - Masterpieces
DYEAR=1984
DGENRE=Classic Rock
TTITLE0=Toccata
TTITLE1=Westway
TTITLE2=Fool on a Hill
TTITLE3=Gymnopodie No. 1
TTITLE4=Vivaldi
TTITLE5=Skylark
TTITLE6=Carillon
TTITLE7=Troika
TTITLE8=Hotta
TTITLE9=Masquerade
TTITLE10=A Girl in Winter
TTITLE11=KP 11
TTITLE12=Dance of the Llittle fairies
TTITLE13=Chiropodie No. 1
TTITLE14=Keep Me Safe and Keep Me Warm, Shelter me from Darkness
EXTD=
EXTT0=
EXTT1=
EXTT2=
EXTT3=
EXTT4=
EXTT5=
EXTT6=
EXTT7=
EXTT8=
EXTT9=
EXTT10=
EXTT11=
EXTT12=
EXTT13=
EXTT14=
PLAYORDER=
